<?xml version="1.0" encoding="UTF-8"?>
<svg width="90px" height="52px" viewBox="0 0 90 52" version="1.1" xmlns="http://www.w3.org/2000/svg" xmlns:xlink="http://www.w3.org/1999/xlink">
    <!-- Generator: Sketch 48.2 (47327) - http://www.bohemiancoding.com/sketch -->
    <title>noun_128876_cc</title>
    <desc>Created with Sketch.</desc>
    <defs></defs>
    <g id="Page-1" stroke="none" stroke-width="1" fill="none" fill-rule="evenodd">
        <g id="noun_128876_cc" fill="#ffffff" fill-rule="nonzero">
            <circle id="Oval" cx="15.5" cy="43.7" r="1.9"></circle>
            <circle id="Oval" cx="75.6" cy="43.7" r="1.9"></circle>
            <path d="M28.5,26.8 L36.5,26.8 C37.2,26.8 37.7,26.2 37.7,25.6 L37.7,12.2 C37.7,11.5 37.1,11 36.5,11 L28.5,11 C27.8,11 27.3,11.6 27.3,12.2 L27.3,25.6 C27.3,26.3 27.8,26.8 28.5,26.8 Z M28.9,12.5 L36.2,12.5 L36.2,25.3 L28.9,25.3 L28.9,12.5 Z" id="Shape"></path>
            <path d="M28.1,31.5 L37,31.5 C37.4,31.5 37.8,31.1 37.8,30.7 C37.8,30.3 37.4,29.9 37,29.9 L28.1,29.9 C27.7,29.9 27.3,30.3 27.3,30.7 C27.3,31.1 27.6,31.5 28.1,31.5 Z" id="Shape"></path>
            <path d="M28.1,35.1 L37,35.1 C37.4,35.1 37.8,34.7 37.8,34.3 C37.8,33.9 37.4,33.5 37,33.5 L28.1,33.5 C27.7,33.5 27.3,33.9 27.3,34.3 C27.3,34.7 27.6,35.1 28.1,35.1 Z" id="Shape"></path>
            <path d="M11.6,26.8 L20.8,26.8 C21.5,26.8 22,26.2 22,25.6 L22,12.2 C22,11.5 21.4,11 20.8,11 L19.2,11 C18.7,11 18.1,11.3 17.9,11.8 L10.7,25.4 C10.5,25.7 10.5,26.1 10.7,26.5 C10.9,26.7 11.2,26.8 11.6,26.8 Z M19.2,12.5 L20.5,12.5 L20.5,25.3 L12.5,25.3 L19.2,12.5 Z" id="Shape"></path>
            <path d="M83.8,11.9 C83.6,11.3 83.1,10.9 82.5,10.9 L47,10.9 C46.4,10.9 45.8,11.3 45.7,11.9 L43.8,17.9 C43.7,18.3 43.7,18.6 44,18.9 C44.2,19.2 44.5,19.3 44.9,19.3 L47.7,19.3 L47.7,26.7 C47,26.7 46.5,27.3 46.5,27.9 L46.5,29.5 C46.5,30.2 47.1,30.7 47.7,30.7 L81.9,30.7 C82.6,30.7 83.1,30.1 83.1,29.5 L83.1,28 C83.1,27.3 82.5,26.8 81.9,26.8 L81.9,19.4 L84.7,19.4 C85.1,19.4 85.4,19.2 85.6,19 C85.8,18.7 85.9,18.4 85.8,18 L83.8,11.9 Z M51.5,17.8 L53.2,12.5 L57.6,12.5 L57.2,17.8 L51.5,17.8 Z M59.1,12.5 L63.9,12.5 L63.9,17.8 L58.7,17.8 L59.1,12.5 Z M65.5,12.5 L70.3,12.5 L70.7,17.8 L65.5,17.8 L65.5,12.5 Z M72.3,17.8 L71.9,12.5 L76.3,12.5 L77.9,17.8 L72.3,17.8 Z M47.1,12.5 L51.5,12.5 L49.8,17.8 L45.4,17.8 L47.1,12.5 Z M81.5,29.3 L47.9,29.3 L47.9,28.4 L81.5,28.4 L81.5,29.3 Z M80.3,26.8 L49.2,26.8 L49.2,19.4 L80.3,19.4 L80.3,26.8 Z M79.6,17.8 L78,12.5 L82.4,12.5 L84,17.8 L79.6,17.8 Z" id="Shape"></path>
            <path d="M88.8,3.8 L81.1,3.8 L81.1,2 C81.1,1.3 80.5,0.8 79.9,0.8 L63.5,0.8 C62.8,0.8 62.3,1.4 62.3,2 L62.3,3.8 L49.8,3.8 L49.8,2 C49.8,1.3 49.2,0.8 48.6,0.8 L40.5,0.8 C40.1,0.8 39.7,0.9 39.3,1 L33,3.8 L18.7,3.8 C18.2,3.8 17.6,4.1 17.4,4.6 L6.2,25.2 C6.2,25.3 6,25.4 5.9,25.5 L0.8,28.3 C0.3,28.6 0,29.1 0,29.6 L0,43.2 C0,43.9 0.6,44.4 1.2,44.4 L8,44.4 C8.4,48.2 11.6,51.1 15.5,51.1 C19.4,51.1 22.6,48.1 23,44.4 L68.1,44.4 C68.5,48.2 71.7,51.1 75.6,51.1 C79.5,51.1 82.7,48.1 83.1,44.4 L88.8,44.4 C89.5,44.4 90,43.8 90,43.2 L90,5 C90,4.3 89.4,3.8 88.8,3.8 Z M63.9,2.3 L79.6,2.3 L79.6,3.7 L63.9,3.7 L63.9,2.3 Z M40,2.4 C40.1,2.3 40.4,2.3 40.5,2.3 L48.2,2.3 L48.2,3.7 L36.9,3.7 L40,2.4 Z M88.4,5.3 L88.4,7 L17.8,7 L18.7,5.3 L88.4,5.3 Z M25.2,8.6 L39.9,8.6 L39.9,43 L28.1,43 L25.3,33.7 C25.3,33.5 25.2,33.2 25.2,33.1 L25.2,8.6 Z M1.6,29.7 L6.7,26.9 C7.1,26.7 7.4,26.3 7.6,26 L17,8.6 L23.7,8.6 L23.7,33 C23.7,33.3 23.8,33.8 23.9,34.1 L26.5,42.9 L23,42.9 C22.6,39.1 19.4,36.2 15.5,36.2 C11.6,36.2 8.4,39.2 8,42.9 L1.6,42.9 L1.6,29.7 Z M15.5,49.7 C12.2,49.7 9.5,47 9.5,43.7 C9.5,40.4 12.2,37.7 15.5,37.7 C18.8,37.7 21.5,40.4 21.5,43.7 C21.4,47 18.8,49.7 15.5,49.7 Z M75.6,49.7 C72.3,49.7 69.6,47 69.6,43.7 C69.6,40.4 72.3,37.7 75.6,37.7 C78.9,37.7 81.6,40.4 81.6,43.7 C81.5,47 78.8,49.7 75.6,49.7 Z M83,42.9 C82.6,39.1 79.4,36.2 75.5,36.2 C71.6,36.2 68.4,39.2 68,42.9 L41.4,42.9 L41.4,8.6 L88.4,8.6 L88.4,43 L83,43 L83,42.9 Z" id="Shape"></path>
        </g>
    </g>
</svg>